HIERARCHY
ROOT Hips
{
	OFFSET 0.000000 0.000000 0.000000
	CHANNELS 6 Xposition Yposition Zposition Zrotation Yrotation Xrotation 
	JOINT LHipJoint
	{
		OFFSET 0.000000 0.000000 0.000000
		CHANNELS 3 Zrotation Yrotation Xrotation
		JOINT LeftUpLeg
		{
			OFFSET 1.363060 -1.794630 0.839290
			CHANNELS 3 Zrotation Yrotation Xrotation
			JOINT LeftLeg
			{
				OFFSET 2.448110 -6.726130 0.000000
				CHANNELS 3 Zrotation Yrotation Xrotation
				JOINT LeftFoot
				{
					OFFSET 2.562200 -7.039590 0.000000
					CHANNELS 3 Zrotation Yrotation Xrotation
					JOINT LeftToeBase
					{
						OFFSET 0.157640 -0.433110 2.322550
						CHANNELS 3 Zrotation Yrotation Xrotation
						End Site
						{
							OFFSET 0.000000 0.000000 0.000000
						}
					}
				}
			}
		}
	}
	JOINT RHipJoint
	{
		OFFSET 0.000000 0.000000 0.000000
		CHANNELS 3 Zrotation Yrotation Xrotation
		JOINT RightUpLeg
		{
			OFFSET -1.305520 -1.794630 0.839290
			CHANNELS 3 Zrotation Yrotation Xrotation
			JOINT RightLeg
			{
				OFFSET -2.542530 -6.985550 0.000000
				CHANNELS 3 Zrotation Yrotation Xrotation
				JOINT RightFoot
				{
					OFFSET -2.568260 -7.056230 0.000000
					CHANNELS 3 Zrotation Yrotation Xrotation
					JOINT RightToeBase
					{
						OFFSET -0.164730 -0.452590 2.363150
						CHANNELS 3 Zrotation Yrotation Xrotation
						End Site
						{
							OFFSET 0.000000 0.000000 0.000000
						}
					}
				}
			}
		}
	}
}
MOTION
Frames: 14
Frame Time: 0.008333
6.363230 16.870499 -4.801202 -178.115996 38.677049 -164.786403 -11.578460 2.728294 1.642774 -14.400655 -11.691374 6.198596 -1.725815 1.411365 21.900507 -0.567509 -8.389837 0.872040 -0.803900 -0.000001 -35.336800 6.174929 -0.572226 4.849010 2.449879 19.137395 -35.176859 3.100426 -0.122651 10.316467 1.619114 10.229972 6.976062 2.091100 -0.000000 -47.796200
6.448764 16.895610 -4.914132 -177.912454 38.048983 -164.694503 -11.807984 2.872533 1.487629 -13.663558 -10.187325 5.156481 -1.526827 1.566117 23.634511 -0.542304 -8.762544 2.716874 -1.108500 0.000000 -39.455700 6.181535 -0.684474 4.833017 2.888393 18.823902 -34.643505 3.108662 -0.151206 10.442214 1.588040 9.973156 7.137145 2.047700 0.000000 -45.243600
6.535025 16.921738 -5.024656 -177.726302 37.383244 -164.613840 -12.036914 3.014797 1.319897 -12.863050 -8.509760 3.962410 -1.323988 1.708374 25.486949 -0.502715 -9.246753 4.623115 -1.475401 -0.000000 -42.468000 6.199022 -0.788417 4.831091 3.308395 18.487767 -34.063490 3.130096 -0.158081 10.462639 1.564990 9.788028 7.127897 1.996900 0.000000 -42.493900
6.621720 16.948563 -5.132997 -177.550881 36.673802 -164.531119 -12.263336 3.149067 1.146950 -12.012381 -6.716731 2.626589 -1.118071 1.836389 27.450232 -0.442948 -9.776861 6.580776 -1.903000 0.000000 -44.447300 6.223329 -0.884493 4.844883 3.708484 18.140453 -33.454493 3.163526 -0.143890 10.383751 1.547807 9.651320 6.969694 1.936900 0.000000 -39.642900
6.708521 16.975793 -5.239201 -177.389289 35.919864 -164.443585 -12.481695 3.268826 0.975481 -11.143222 -4.877946 1.170876 -0.912214 1.949321 29.511894 -0.359317 -10.262011 8.556934 -2.371800 0.000000 -45.371200 6.253158 -0.972654 4.872278 4.085765 17.782218 -32.830251 3.205828 -0.110855 10.215592 1.534095 9.541344 6.700844 1.868400 -0.000000 -36.905499
6.794719 17.003140 -5.343788 -177.226710 35.120968 -164.334888 -12.692753 3.367664 0.810674 -10.266663 -3.047377 -0.398722 -0.707860 2.047546 31.667241 -0.250576 -10.610452 10.517058 -2.848200 -0.000000 -45.400799 6.281358 -1.054956 4.914647 4.450482 17.425576 -32.205913 3.256168 -0.059637 9.962368 1.520223 9.423416 6.354457 1.787300 0.000000 -34.303300
6.879712 17.030326 -5.446713 -177.069763 34.284392 -164.212090 -12.889937 3.440186 0.655527 -9.424770 -1.291000 -2.048832 -0.509409 2.133088 33.892726 -0.118510 -10.714358 12.412820 -3.277300 -0.000000 -44.658900 6.308131 -1.131002 4.964594 4.801453 17.061391 -31.583063 3.310619 0.006177 9.634838 1.503902 9.280116 5.980530 1.696600 0.000000 -32.108700
6.962867 17.057122 -5.548154 -176.915250 33.417119 -164.074829 -13.071469 3.482541 0.511986 -8.639080 0.345883 -3.760837 -0.319834 2.208883 36.173485 0.033084 -10.487856 14.186213 -3.595601 0.000000 -43.305899 6.330269 -1.201842 5.018105 5.144982 16.689823 -30.963342 3.367278 0.084400 9.239556 1.482677 9.090530 5.613598 1.596701 0.000000 -30.390000
7.043734 17.083351 -5.648029 -176.766492 32.528648 -163.929807 -13.234968 3.492875 0.380913 -7.930920 1.826859 -5.512754 -0.141988 2.278598 38.489945 0.199572 -9.869609 15.775455 -3.739700 0.000000 -41.532800 6.346549 -1.267859 5.069364 5.485214 16.306834 -30.342007 3.424222 0.172573 8.783637 1.455167 8.844405 5.280213 1.489100 0.000000 -29.183800
7.121917 17.108867 -5.746071 -176.629476 31.629041 -163.791154 -13.377328 3.471446 0.261803 -7.321822 3.124975 -7.274291 0.022290 2.346111 40.815107 0.377016 -8.831131 17.128342 -3.661400 0.000000 -39.632000 6.358518 -1.328401 5.109465 5.822326 15.900546 -29.706239 3.479661 0.267666 8.276201 1.421438 8.546076 4.996570 1.377500 -0.000000 -28.494300
7.197339 17.133529 -5.842336 -176.502080 30.724961 -163.656935 -13.500026 3.420174 0.156540 -6.810680 4.229899 -9.041779 0.172054 2.414582 43.136652 0.560855 -7.398385 18.175683 -3.340800 0.000000 -37.703600 6.364198 -1.384576 5.137975 6.160551 15.475238 -29.055411 3.533646 0.369105 7.718398 1.381372 8.194267 4.766441 1.261600 0.000000 -28.186999
7.269957 17.157270 -5.936336 -176.395765 29.824879 -163.547332 -13.599576 3.343315 0.063106 -6.412872 5.134201 -10.782619 0.307060 2.487101 45.423852 0.747794 -5.627954 18.884035 -2.792600 0.000000 -36.031300 6.369051 -1.434306 5.144674 6.493788 15.012744 -28.371768 3.584795 0.473871 7.120810 1.337477 7.815881 4.585038 1.147000 0.000000 -28.188500
7.340181 17.180042 -6.027850 -176.315243 28.932705 -163.466668 -13.676338 3.246145 -0.018188 -6.123702 5.843780 -12.489846 0.427901 2.565562 47.659570 0.933001 -3.622716 19.216426 -2.067300 -0.000000 -34.677900 6.375192 -1.477479 5.128254 6.819433 14.511458 -27.651286 3.632876 0.581119 6.486199 1.291615 7.427752 4.442473 1.036100 -0.000001 -28.358100
7.408260 17.201818 -6.116669 -176.263402 28.050536 -163.420380 -13.730285 3.134697 -0.088121 -5.939092 6.371204 -14.153471 0.535831 2.650971 49.823630 1.110848 -1.507042 19.158653 -1.241500 0.000000 -33.658700 6.386178 -1.513476 5.086789 7.131768 13.966486 -26.889732 3.677645 0.689609 5.819943 1.246406 7.053647 4.325030 0.932600 0.000000 -28.576400
